<svg width="491" height="90" viewBox="0 0 491 90" fill="none" xmlns="http://www.w3.org/2000/svg">
<path opacity="0.6" fill-rule="evenodd" clip-rule="evenodd" d="M35 0C29.4772 0 25 4.47715 25 10V18.0013C11.1698 18.1456 0 30.178 0 45C0 59.822 11.1698 71.8544 25 71.9987V80C25 85.5229 29.4771 90 35 90H481C486.523 90 491 85.5229 491 80V10C491 4.47715 486.523 0 481 0H35Z" fill="white"/>
<path d="M27 28C17.6269 28 10 35.6269 10 45C10 54.3731 17.6269 62 27 62C36.3731 62 44 54.3731 44 45C44 35.6269 36.3731 28 27 28ZM27 54.9174C26.2182 54.9174 25.5826 54.2839 25.5826 53.5C25.5826 52.7182 26.2161 52.0826 27 52.0826C27.7818 52.0826 28.4174 52.7161 28.4174 53.5C28.4174 54.2818 27.7818 54.9174 27 54.9174ZM28.4174 47.8326C28.4174 48.6165 27.7818 49.25 27 49.25C26.2182 49.25 25.5826 48.6145 25.5826 47.8326V36.5C25.5826 35.7182 26.2182 35.0826 27 35.0826C27.7818 35.0826 28.4174 35.7182 28.4174 36.5V47.8326Z" fill="#EF358B"/>
<path d="M27.0033 54.9207C26.2215 54.9207 25.5859 54.2872 25.5859 53.5033C25.5859 52.7215 26.2194 52.0859 27.0033 52.0859C27.7851 52.0859 28.4207 52.7194 28.4207 53.5033C28.4207 54.2851 27.7851 54.9207 27.0033 54.9207ZM28.4207 47.8359C28.4207 48.6198 27.7851 49.2533 27.0033 49.2533C26.2215 49.2533 25.5859 48.6178 25.5859 47.8359V36.5033C25.5859 35.7215 26.2215 35.0859 27.0033 35.0859C27.7851 35.0859 28.4207 35.7215 28.4207 36.5033V47.8359Z" fill="white"/>
</svg>
