<svg width="41" height="41" viewBox="0 0 41 41" fill="none" xmlns="http://www.w3.org/2000/svg">
<rect width="40.1914" height="40.1914" rx="5.02392" fill="#D92B7C"/>
<path fill-rule="evenodd" clip-rule="evenodd" d="M9.85758 24.3306C11.5669 27.3527 13.6339 31.0073 19.0486 30.768C23.7939 30.5583 26.999 26.6842 29.668 23.458C31.5182 21.2216 33.1107 19.2967 34.7801 19.1196C32.0686 16.9096 29.425 17.113 25.2967 19.8416C24.4959 20.2784 23.5112 20.1026 23.1994 19.2321C22.7501 17.9781 22.3799 17.0333 22.05 16.1918C21.3667 14.4481 20.857 13.1477 20.1789 10.4587C20.1737 10.4381 20.1686 10.4178 20.1635 10.3978C19.9925 9.7201 19.8984 9.34754 19.9185 8.61737C18.3042 9.55197 17.7934 11.0038 18.5674 13.2492C16.755 11.4562 15.9136 10.2746 14.5407 8.03809C13.1195 9.45609 13.2907 10.7512 15.2201 13.9C11.7667 11.5336 10.5943 10.4224 9.26337 8.65526C8.19643 10.0562 8.08316 11.7014 10.3957 13.6593C11.8702 14.9075 13.0019 15.5515 14.4097 16.3527C14.7659 16.5554 15.1397 16.7681 15.5413 17.0032C14.1917 17.0141 12.8013 17.1016 11.5163 17.1825C9.64688 17.3001 8.00063 17.4037 7.02808 17.237C7.78982 19.0849 8.55599 19.535 10.2643 19.7476H16.1626C16.5685 19.7619 16.9 19.8365 17.169 19.9579C17.5066 20.0894 17.8213 20.2863 18.0959 20.542C18.6572 20.0253 19.3838 19.7521 20.1291 19.7774C20.8743 19.8027 21.5827 20.1247 22.1113 20.6783C22.6557 21.2624 22.963 22.0464 22.9684 22.8647C22.9737 23.683 22.6766 24.4714 22.1399 25.0633L18.242 29.1669C18.2053 29.2056 18.1554 29.2273 18.1035 29.2273C18.0516 29.2273 18.0018 29.2056 17.965 29.1669C14.7213 25.7449 14.1584 25.1691 14.0529 25.0445C13.5543 24.5424 13.1924 24.1127 12.7917 23.6371C12.3836 23.1525 11.9354 22.6203 11.2615 21.9153C9.89809 20.489 8.82355 20.4574 7.28889 20.9008C8.28717 21.5542 9.0305 22.8684 9.85758 24.3306Z" fill="white"/>
<path d="M22.1113 20.6784C21.5827 20.1248 20.8743 19.8028 20.1291 19.7775C19.3838 19.7522 18.6572 20.0255 18.0959 20.5421C17.5283 20.0135 16.7888 19.7362 16.0316 19.7681C15.2745 19.8 14.5583 20.1386 14.0327 20.7132C13.5071 21.2879 13.2127 22.0541 13.2109 22.8518C13.2092 23.6495 13.5003 24.4171 14.0234 24.9943C14.0516 25.0679 13.8276 24.8021 17.965 29.167C18.0017 29.2057 18.0516 29.2274 18.1035 29.2274C18.1554 29.2274 18.2053 29.2057 18.242 29.167L22.1399 25.0634C22.6766 24.4715 22.9737 23.6831 22.9683 22.8648C22.963 22.0465 22.6557 21.2625 22.1113 20.6784Z" fill="#FF93C5"/>
</svg>
