<svg width="58" height="190" viewBox="0 0 58 190" fill="none" xmlns="http://www.w3.org/2000/svg">
<g clip-path="url(#clip0_2333_40)">
<path d="M11.1901 14.9993C8.0273 14.164 4.4146 13.1616 2.70235 10.057C1.96788 8.72513 1.69245 7.15195 2.22494 5.69943C2.68399 4.43253 3.73062 3.51368 4.87824 2.8872C6.09012 2.22359 7.4489 1.86626 8.79391 1.6203C10.5658 1.29546 12.3653 1.12375 14.1648 1.11447C17.7591 1.10055 21.3626 1.69455 24.7504 2.90576C27.5506 3.90814 30.6033 5.3421 32.2099 8.00583C32.9949 9.30521 33.2428 10.8645 32.9031 12.3495C32.5404 13.9273 31.6132 15.2963 30.5987 16.5214C29.4373 17.9275 28.1106 19.2037 26.8437 20.5124L22.6801 24.8142C20.4078 27.1624 18.0621 29.5941 16.7446 32.6523C15.5006 35.548 15.6521 38.8104 17.4745 41.4231C19.3566 44.1193 22.7168 45.3723 25.9072 44.9036C26.7427 44.7829 27.5552 44.5463 28.331 44.2214C28.588 44.1147 29.0746 43.8038 28.8222 43.4743C28.5697 43.1448 27.8857 43.3443 27.6011 43.4557C24.5209 44.6623 21.0505 43.2562 19.2281 40.5831C17.4056 37.9101 17.5984 34.2904 19.173 31.4179C20.8898 28.2854 23.589 25.8027 26.0403 23.2735C27.4542 21.8117 28.8681 20.3499 30.2819 18.8881C31.4846 17.6444 32.6965 16.3729 33.6192 14.8972C34.4776 13.5282 35.0514 12.0014 34.9963 10.3633C34.9459 8.86435 34.294 7.46751 33.3484 6.33056C31.2872 3.85245 28.1106 2.53451 25.136 1.57854C21.5876 0.427657 17.828 -0.0967359 14.1005 0.0146395C10.7495 0.112093 7.13675 0.534392 4.10704 2.07973C1.45833 3.42551 -0.644105 5.95002 0.182181 9.1103C1.08191 12.5629 4.35951 14.3403 7.48104 15.338C8.3165 15.6072 9.16574 15.83 10.015 16.0527C10.4419 16.1641 11.0616 15.9924 11.3738 15.6861C11.6721 15.3937 11.5895 15.106 11.1901 14.9993Z" fill="white"/>
<path d="M21.7428 51.7697C21.3021 52.8486 21.9772 53.9547 22.915 54.5415C24.1246 55.2999 25.7704 55.0336 26.9472 54.3519C27.4911 54.0359 27.9694 53.6025 28.3304 53.0969C28.5039 52.8532 28.6492 52.5913 28.7711 52.3205C28.893 52.0496 29.104 51.6523 28.9399 51.377C28.6633 50.9165 27.9928 50.5554 27.4958 50.3657C26.8675 50.122 26.1877 50.0046 25.5078 50.0001C23.6792 49.9911 21.935 50.7179 20.3549 51.5395C20.1111 51.6659 19.8298 51.9909 20.1299 52.2031C20.43 52.4153 20.9926 52.3159 21.3114 52.1805C22.3945 51.7201 23.5198 51.1242 24.6076 51.0745C25.4937 51.0339 26.4971 51.3724 27.1207 52.1173L27.0504 51.8645C26.9003 52.4469 26.619 53.0157 26.1689 53.4445C26.0845 53.5258 25.9392 53.6477 25.8782 53.6928C25.8923 53.6838 25.7516 53.7696 25.7235 53.7876L25.6391 53.8373C25.7 53.8102 25.7047 53.8057 25.6391 53.8373C25.5734 53.8644 25.4328 53.9185 25.5781 53.8689C25.5547 53.8779 25.3062 53.9321 25.4281 53.9095C25.5406 53.8869 25.264 53.9231 25.2687 53.9231C25.4093 53.9185 25.189 53.905 25.2499 53.9185C24.7717 53.8147 24.2887 53.5303 23.9512 53.0879C23.6136 52.6455 23.5104 52.0631 23.7308 51.535C23.8996 51.1287 23.0884 51.1016 22.8728 51.1242C22.4508 51.1738 21.9116 51.3634 21.7428 51.7742V51.7697Z" fill="white"/>
</g>
<g clip-path="url(#clip1_2333_40)">
<path d="M41.626 95.1387C40.1664 93.5727 38.5161 91.7573 38.6498 89.4461C38.7072 88.4547 39.1028 87.4904 39.9034 86.8751C40.5988 86.3365 41.4981 86.1953 42.3515 86.2506C43.2534 86.3079 44.1299 86.5856 44.9599 86.9198C46.0538 87.3597 47.1095 87.8938 48.1087 88.5174C50.1029 89.7657 51.8904 91.3525 53.3435 93.2045C54.5442 94.736 55.7342 96.5938 55.6956 98.6248C55.6775 99.616 55.2716 100.563 54.5663 101.264C53.816 102.007 52.8259 102.439 51.8377 102.76C50.7051 103.13 49.5264 103.371 48.3693 103.65L44.5665 104.569C42.4909 105.07 40.3456 105.592 38.5512 106.819C36.8541 107.982 35.8015 109.835 35.9001 111.913C36.0027 114.059 37.426 115.924 39.355 116.78C39.8594 117.006 40.3916 117.159 40.9341 117.251C41.1135 117.282 41.4911 117.28 41.4662 117.01C41.4412 116.74 40.9931 116.611 40.7968 116.573C38.6718 116.163 37.2408 114.174 37.1632 112.063C37.0857 109.951 38.4532 108.021 40.3252 106.987C42.3665 105.858 44.7252 105.432 46.9629 104.893C48.2546 104.58 49.5463 104.268 50.838 103.955C51.9369 103.689 53.0505 103.411 54.0752 102.919C55.0272 102.464 55.8765 101.822 56.4167 100.899C56.9108 100.054 57.0366 99.0561 56.9092 98.0983C56.6317 96.0109 55.3326 94.1738 54.0192 92.607C52.4562 90.7321 50.558 89.1291 48.4562 87.8881C46.5676 86.771 44.421 85.7417 42.2059 85.5356C40.2712 85.3527 38.2282 86.0109 37.5847 88.0432C36.8801 90.2625 38.075 92.3884 39.4551 94.0296C39.8238 94.47 40.2162 94.8897 40.6086 95.3093C40.8061 95.5199 41.2089 95.6417 41.4884 95.5818C41.7553 95.5248 41.8098 95.3371 41.626 95.1387Z" fill="white"/>
<path d="M34.6627 119.369C34.0376 119.831 34.0074 120.689 34.3054 121.343C34.6893 122.187 35.6765 122.598 36.5583 122.614C36.9661 122.621 37.3805 122.539 37.7571 122.376C37.9384 122.297 38.1109 122.198 38.274 122.086C38.437 121.974 38.6936 121.821 38.7033 121.609C38.7183 121.253 38.4843 120.819 38.2828 120.541C38.0297 120.188 37.7033 119.889 37.3365 119.654C36.3489 119.023 35.1435 118.839 33.9932 118.764C33.8158 118.752 33.547 118.84 33.6336 119.063C33.7202 119.286 34.0607 119.423 34.2819 119.455C35.0337 119.564 35.8568 119.611 36.464 119.955C36.9588 120.235 37.3812 120.771 37.4524 121.406L37.5048 121.239C37.215 121.518 36.8589 121.744 36.4614 121.834C36.3866 121.851 36.2642 121.87 36.215 121.875C36.2259 121.875 36.1189 121.875 36.0972 121.876L36.0337 121.875C36.0764 121.881 36.0806 121.88 36.0337 121.875C35.9884 121.868 35.8928 121.851 35.9894 121.872C35.9734 121.869 35.8194 121.815 35.8935 121.844C35.9626 121.87 35.7997 121.795 35.8023 121.797C35.8801 121.843 35.7656 121.759 35.7937 121.788C35.5718 121.565 35.4119 121.239 35.3874 120.873C35.3629 120.506 35.5155 120.141 35.824 119.916C36.061 119.744 35.6311 119.451 35.5062 119.39C35.2598 119.274 34.8997 119.197 34.6611 119.372L34.6627 119.369Z" fill="white"/>
</g>
<g clip-path="url(#clip2_2333_40)">
<path d="M26.7997 163.295C25.7829 161.404 24.6443 159.223 25.3483 157.038C25.6504 156.101 26.2714 155.279 27.1961 154.9C28.0002 154.567 28.9019 154.669 29.7105 154.949C30.5653 155.242 31.3409 155.741 32.0576 156.282C33.0022 156.995 33.8866 157.787 34.6943 158.651C36.3053 160.378 37.6329 162.376 38.5723 164.54C39.3482 166.33 40.0327 168.429 39.4901 170.37C39.2259 171.318 38.5992 172.12 37.7452 172.606C36.8371 173.122 35.7757 173.274 34.7434 173.321C33.56 173.376 32.3642 173.295 31.1798 173.257L27.2867 173.132C25.1618 173.065 22.9646 172.998 20.9302 173.701C19.0054 174.369 17.53 175.87 17.1079 177.893C16.6729 179.981 17.5802 182.15 19.226 183.483C19.656 183.833 20.1307 184.121 20.6306 184.353C20.7958 184.431 21.1601 184.529 21.2032 184.263C21.2463 183.997 20.8466 183.755 20.6669 183.666C18.7213 182.709 17.8372 180.42 18.2879 178.371C18.7386 176.322 20.5366 174.83 22.598 174.332C24.8458 173.789 27.2249 174.003 29.5153 174.079C30.8378 174.12 32.1602 174.162 33.4827 174.204C34.6078 174.24 35.7501 174.268 36.8599 174.067C37.8906 173.881 38.8688 173.49 39.6189 172.746C40.3053 172.066 40.675 171.14 40.7906 170.186C41.0425 168.107 40.2479 165.998 39.3722 164.145C38.3325 161.93 36.9023 159.887 35.1857 158.139C33.6438 156.565 31.8314 155.008 29.7482 154.223C27.9293 153.535 25.7969 153.626 24.6711 155.408C23.4398 157.353 24.0623 159.712 24.9838 161.654C25.2294 162.175 25.5032 162.682 25.7769 163.189C25.9148 163.444 26.2726 163.667 26.5568 163.684C26.8283 163.7 26.9275 163.534 26.7997 163.295Z" fill="white"/>
<path d="M13.5207 184.863C12.846 185.087 12.6648 185.868 12.831 186.566C13.0449 187.467 13.9074 188.164 14.7405 188.462C15.126 188.599 15.5334 188.656 15.9195 188.627C16.1054 188.612 16.2865 188.577 16.461 188.526C16.6355 188.475 16.9059 188.417 16.9529 188.224C17.0304 187.901 16.8858 187.426 16.7442 187.105C16.567 186.699 16.3108 186.318 16.0049 185.984C15.1808 185.085 14.0709 184.528 12.9936 184.09C12.8275 184.022 12.557 184.017 12.5995 184.251C12.6419 184.484 12.9405 184.719 13.1445 184.819C13.8377 185.162 14.6097 185.469 15.1242 185.981C15.5433 186.398 15.8486 187.027 15.8031 187.636L15.8825 187.498C15.5582 187.662 15.1803 187.757 14.7876 187.711C14.7136 187.703 14.5941 187.681 14.5466 187.67C14.557 187.673 14.4555 187.639 14.4348 187.633L14.3747 187.612C14.4143 187.631 14.4184 187.631 14.3747 187.612C14.3331 187.591 14.2455 187.544 14.3332 187.595C14.3186 187.587 14.1823 187.488 14.2474 187.538C14.3083 187.584 14.1671 187.463 14.1692 187.466C14.2349 187.533 14.1411 187.419 14.1627 187.455C13.9919 187.178 13.8984 186.826 13.9403 186.481C13.9823 186.135 14.192 185.847 14.5244 185.74C14.7797 185.657 14.4243 185.249 14.3167 185.153C14.1037 184.967 13.7761 184.78 13.5187 184.865L13.5207 184.863Z" fill="white"/>
</g>
<defs>
<clipPath id="clip0_2333_40">
<rect width="35" height="55" fill="white"/>
</clipPath>
<clipPath id="clip1_2333_40">
<rect width="25" height="38" fill="white" transform="translate(33 85)"/>
</clipPath>
<clipPath id="clip2_2333_40">
<rect width="30" height="37" fill="white" transform="translate(12 153)"/>
</clipPath>
</defs>
</svg>
